<!DOCTYPE svg PUBLIC "-//W3C//DTD SVG 1.1//EN" "http://www.w3.org/Graphics/SVG/1.1/DTD/svg11.dtd">
<!-- Uploaded to: SVG Repo, www.svgrepo.com, Transformed by: SVG Repo Mixer Tools -->
<svg width="256px" height="256px" viewBox="-17.92 -17.92 291.84 291.84" version="1.1" xmlns="http://www.w3.org/2000/svg" xmlns:xlink="http://www.w3.org/1999/xlink" preserveAspectRatio="xMidYMid" fill="#ffffff" transform="matrix(1, 0, 0, 1, 0, 0)rotate(-45)" stroke="#ffffff" stroke-width="10.495999999999999">
<g id="SVGRepo_bgCarrier" stroke-width="0"/>
<g id="SVGRepo_tracerCarrier" stroke-linecap="round" stroke-linejoin="round"/>
<g id="SVGRepo_iconCarrier"> <g> <path d="M216.357806,174.771308 C255.135865,205.772152 279.979747,113.201688 218.194093,96.1350211 C166.345992,81.7687764 114.17384,106.396624 61.8936709,163.861603 C61.8936709,163.861603 158.460759,128.540084 216.357806,174.771308 Z" fill="#262733"> </path> <path d="M62.7578059,163.105485 C99.9156118,124.54346 161.701266,81.5527426 219.274262,97.4312236 C232.668354,101.211814 242.17384,108.98903 248.330802,118.278481 L193.890295,8.42531646 C186.11308,-3.99662447 166.237975,-1.40421941 155.004219,8.10126582 L11.1257384,128.648101 C-1.9443038,139.881857 -2.70042194,159.864979 9.39746835,171.962869 C20.0911392,182.65654 37.049789,183.628692 48.8236287,174.123207 L62.7578059,163.105485 Z" fill="#262733"> </path> </g> </g>
</svg>