<svg xmlns="http://www.w3.org/2000/svg" fill-rule="evenodd" clip-rule="evenodd" image-rendering="optimizeQuality" shape-rendering="geometricPrecision" text-rendering="geometricPrecision" viewBox="0 0 2000 2000"><path fill="#1f4188" d="M1268 1520l-536 0c-24,0 -44,-20 -44,-44l0 -244c0,-113 66,-216 169,-263 11,-5 24,-2 31,7 28,33 69,53 112,53 43,0 84,-20 112,-53 7,-9 20,-12 31,-7 103,47 169,150 169,263l0 244c0,24 -20,44 -44,44zm-529 -52l522 0 0 -236c0,-87 -48,-166 -123,-208 -37,36 -86,56 -138,56 -52,0 -101,-20 -138,-56 -75,42 -123,121 -123,208l0 236 0 0z"/><path fill="#ffcf00" d="M1000 922c-108,0 -197,-88 -197,-196 0,-109 89,-197 197,-197 108,0 197,88 197,197 0,108 -89,196 -197,196zm0 -341c-80,0 -145,65 -145,145 0,80 65,145 145,145 80,0 145,-65 145,-145 0,-80 -65,-145 -145,-145z"/><path fill="#1f4188" d="M1148 1520c-14 0-26-11-26-26l0-268c0-14 12-26 26-26 14 0 26 12 26 26l0 268c0 15-12 26-26 26zM852 1520c-14 0-26-11-26-26l0-268c0-14 12-26 26-26 14 0 26 12 26 26l0 268c0 15-12 26-26 26zM1815 1165l-361 0c-21 0-39-18-39-39l0-164c0-80 47-152 120-185 10-5 23-2 30 7 17 21 43 32 69 32 27 0 52-11 69-32 8-9 20-12 31-7 72 33 119 105 119 185l0 164c0 21-17 39-38 39zm-348-52l335 0 0-151c0-53-29-103-74-130-25 23-59 36-94 36-35 0-68-13-94-36-45 27-73 77-73 130l0 151z"/><path fill="#ffcf00" d="M1634 762c-77,0 -141,-64 -141,-141 0,-78 64,-141 141,-141 78,0 141,63 141,141 0,77 -63,141 -141,141zm0 -230c-49,0 -89,40 -89,89 0,49 40,89 89,89 50,0 90,-40 90,-89 0,-49 -40,-89 -90,-89z"/><path fill="#1f4188" d="M1734 1165c-14 0-26-12-26-26l0-181c0-14 12-26 26-26 14 0 26 12 26 26l0 181c0 14-12 26-26 26zM1535 1165c-15 0-26-12-26-26l0-181c0-14 11-26 26-26 14 0 25 12 25 26l0 181c0 14-11 26-25 26zM546 1165l-361 0c-21 0-38-18-38-39l0-164c0-80 47-152 119-185 11-5 23-2 31 7 17 21 42 32 69 32 26 0 52-11 69-32 7-9 20-12 30-7 73 33 120 105 120 185l0 164c0 21-18 39-39 39zm-348-52l335 0 0-151c0-53-28-103-73-130-26 23-59 36-94 36-35 0-69-13-94-36-45 27-74 77-74 130l0 151z"/><path fill="#ffcf00" d="M366 762c-78,0 -141,-64 -141,-141 0,-78 63,-141 141,-141 77,0 141,63 141,141 0,77 -64,141 -141,141zm0 -230c-50,0 -90,40 -90,89 0,49 40,89 90,89 49,0 89,-40 89,-89 0,-49 -40,-89 -89,-89z"/><path fill="#1f4188" d="M465 1165c-14 0-25-12-25-26l0-181c0-14 11-26 25-26 15 0 26 12 26 26l0 181c0 14-11 26-26 26zM266 1165c-14 0-26-12-26-26l0-181c0-14 12-26 26-26 14 0 26 12 26 26l0 181c0 14-12 26-26 26z"/></svg>