<svg xmlns="http://www.w3.org/2000/svg" xmlns:xlink="http://www.w3.org/1999/xlink" version="1.1" id="Layer_1" x="0px" y="0px" viewBox="0 0 512 512" style="enable-background:new 0 0 512 512;" xml:space="preserve">
<style type="text/css">
	.st0{fill:#5ec6e3;}
</style>
<g>
	<path class="st0" d="M302.3,153.49c2.09,2.1,4.05,4.33,5.85,6.66c4.92,6.35,8.73,13.51,11.26,21.18l11.18,34.38   c0.93,2.65,2.67,4.95,4.97,6.57c2.3,1.62,5.04,2.49,7.85,2.49s5.55-0.87,7.85-2.49c2.05-1.45,3.65-3.43,4.64-5.72l0.33-0.84   l11.18-34.38c3.48-10.45,9.35-19.95,17.14-27.74c7.79-7.79,17.3-13.66,27.76-17.13l34.41-11.17c2.65-0.94,4.95-2.67,6.57-4.96   c1.63-2.29,2.5-5.04,2.5-7.85s-0.87-5.55-2.5-7.85c-1.62-2.29-3.92-4.03-6.57-4.96l-0.69-0.17l-34.41-11.18   c-10.46-3.47-19.97-9.34-27.77-17.13c-7.79-7.79-13.66-17.29-17.14-27.74L355.54,9.06c-0.94-2.65-2.67-4.95-4.97-6.57   c-2.3-1.62-5.04-2.5-7.85-2.5c-2.81,0-5.55,0.87-7.85,2.5c-2.29,1.62-4.03,3.92-4.97,6.57l-11.18,34.38l-0.28,0.85   c-3.44,10.05-9.1,19.19-16.56,26.76c-7.67,7.78-17.04,13.69-27.37,17.26L240.1,99.5l-1.02,0.41h-0.2l-5.34,4.5   c-1.62,2.18-2.49,4.82-2.51,7.53l0,0.38l0.01,0.55c0.04,2.36,0.75,4.67,2.05,6.64l0.44,0.66l4.59,4.08l1.92,0.9l34.47,11.24   c6.44,2.12,12.52,5.14,18.06,8.97C296.03,147.75,299.29,150.48,302.3,153.49z M481.22,248.87l19.12,6.21l0.38,0.1l3.65,2.76   l1.39,4.36l-1.39,4.36l-3.65,2.76l-19.12,6.21c-5.81,1.93-11.09,5.19-15.43,9.52c-4.33,4.33-7.59,9.61-9.52,15.41l-6.21,19.1   l-2.76,3.65l-4.36,1.39l-4.36-1.39l-2.76-3.65l-6.21-19.1c-1.92-5.82-5.18-11.12-9.51-15.46c-4.33-4.35-9.62-7.62-15.44-9.56   l-19.12-6.21l-3.65-2.76l-1.39-4.36l1.39-4.36l3.65-2.76l19.12-6.21c5.74-1.98,10.95-5.26,15.21-9.59   c4.26-4.32,7.47-9.58,9.36-15.34l6.21-19.1l2.76-3.65l4.36-1.39l4.36,1.39l2.76,3.65l6.21,19.1c1.93,5.81,5.19,11.09,9.52,15.41   C470.12,243.68,475.41,246.94,481.22,248.87z M330.93,349.66V248.24c-3.8-1.18-7.42-2.94-10.73-5.23   c-6.62-4.78-11.6-11.5-14.24-19.23l-10.99-34.47c-1.66-4.94-4.1-9.58-7.24-13.74l-3.75-4.25c-5.04-5.04-11.2-8.8-17.98-10.99   l-34.97-11.49c-7.44-2.8-13.87-7.76-18.48-14.24c-4.53-6.53-6.97-14.28-6.99-22.23c0.01-4.27,0.7-8.48,2.04-12.49H62.44   c-31.04,0-56.2,25.16-56.2,56.2V455.8c0,31.04,25.16,56.2,56.2,56.2h274.73c44.83,0,81.17-36.34,81.17-81.17v-68.68   c0-6.9-5.59-12.49-12.49-12.49H330.93z M337.17,474.54h-6.24v-87.41h49.95v43.71C380.88,454.97,361.31,474.54,337.17,474.54z    M81.17,218.54c0-10.35,8.39-18.73,18.73-18.73h137.37c10.34,0,18.73,8.39,18.73,18.73s-8.39,18.73-18.73,18.73H99.9   C89.56,237.27,81.17,228.88,81.17,218.54z M81.17,305.95c0-10.34,8.39-18.73,18.73-18.73h137.37c10.34,0,18.73,8.39,18.73,18.73   c0,10.35-8.39,18.73-18.73,18.73H99.9C89.56,324.68,81.17,316.3,81.17,305.95z M81.17,393.37c0-10.34,8.39-18.73,18.73-18.73h62.44   c10.34,0,18.73,8.39,18.73,18.73c0,10.35-8.39,18.73-18.73,18.73H99.9C89.56,412.1,81.17,403.71,81.17,393.37z"/>
</g>
</svg>
